<svg width="155" height="128" viewBox="0 0 155 128" fill="none" xmlns="http://www.w3.org/2000/svg">
<g clip-path="url(#clip0_1_1107)">
<path d="M22.9482 -5.67141e-05C20.1723 16.0761 39.8597 54.4843 60.0316 73.4389C81.7879 93.9739 97.5176 101.431 135.304 108.838C133.572 110.428 132.017 111.576 130.812 112.836C129.377 114.214 127.874 115.686 126.816 117.338C126.477 117.804 126.714 119.258 127.21 119.762C127.707 120.266 129.123 120.299 129.65 119.97C134.597 116.731 139.357 113.355 144.278 109.955C145.833 108.807 146.082 107.278 144.822 105.648C139.791 99.7068 134.827 93.6723 129.634 87.7557C128.426 86.4491 126.461 85.5892 124.579 84.2197C123.17 89.321 126.896 91.3203 128.597 94.1253C130.324 97.092 132.578 99.7298 135.057 103.244C123.451 102.778 113.175 100.286 103.309 96.2416C67.0763 81.5578 43.4586 54.681 29.7334 18.7594C27.9731 14.0586 26.7663 9.19057 25.1679 4.46509C24.4719 3.24609 23.8699 2.09556 22.9482 -5.67141e-05Z" fill="#313B59"/>
</g>
<defs>
<clipPath id="clip0_1_1107">
<rect width="163" height="39" fill="white" transform="matrix(0.808558 0.588416 0.588416 -0.808558 0 31.5337)"/>
</clipPath>
</defs>
</svg>
