<svg width="25" height="25" viewBox="0 0 25 25" fill="none" xmlns="http://www.w3.org/2000/svg">
<path d="M12.5984 2.17236C7.08439 2.17236 2.59839 6.65836 2.59839 12.1724C2.59839 17.6864 7.08439 22.1724 12.5984 22.1724C18.1124 22.1724 22.5984 17.6864 22.5984 12.1724C22.5984 6.65836 18.1124 2.17236 12.5984 2.17236ZM10.5994 16.5854L7.59384 13.5863C7.20309 13.1964 7.2023 12.5636 7.59208 12.1727C7.9821 11.7815 8.6154 11.7808 9.00632 12.1711L10.5974 13.7594L15.1844 9.17236C15.5749 8.7819 16.2079 8.7819 16.5984 9.17236C16.9889 9.56283 16.9889 10.1959 16.5984 10.5864L10.5994 16.5854Z" fill="#2FAB73"/>
</svg>
