<svg width="116" height="120" viewBox="0 0 116 120" fill="none" xmlns="http://www.w3.org/2000/svg">
<path opacity="0.2" d="M52.6631 34.8013L51.7524 34.8727C50.7625 34.9435 49.7353 35.0232 48.7199 35.2136L45.3306 35.7738C44.5108 35.9566 43.6943 36.1731 42.9057 36.3829L41.5502 36.7392C41.17 36.8407 40.7897 36.9423 40.4116 37.0531L38.7679 37.6467C38.4468 37.7685 38.1292 37.8846 37.8152 37.9948C37.1019 38.2506 36.3664 38.5167 35.6222 38.8491L32.6833 40.2336L31.9178 40.6007L31.1681 41.0332L29.8218 41.8167C28.2983 42.6429 26.9152 43.6426 25.5815 44.6008C25.2079 44.8735 24.832 45.1368 24.462 45.4037L24.387 45.4613C23.7717 45.96 23.1645 46.4716 22.5666 46.981L21.9629 47.4868C21.8409 47.5952 21.7097 47.7058 21.5819 47.8106C21.2936 48.048 21.011 48.2888 20.7446 48.5554L19.6694 49.624C16.8896 52.2832 14.3525 55.417 11.9005 59.2312L10.339 61.7843L9.00045 64.4022C8.54881 65.2317 8.19593 66.0818 7.85367 66.9145L7.19427 68.5C6.99724 68.9522 6.79631 69.4498 6.64654 69.9548L5.76349 72.6604C5.54965 73.3092 5.39984 73.9573 5.24906 74.5811C5.18011 74.8889 5.10537 75.1932 5.02225 75.5242L4.69879 76.8855C4.6073 77.2432 4.56021 77.5804 4.51088 77.9082C4.48862 78.0616 4.46991 78.2093 4.4335 78.3859L4.00628 81.1395L6.58477 81.9051C12.0213 69.8293 22.7208 60.36 34.4959 57.1963C34.9344 57.0906 35.3716 57 35.8066 56.9001C36.1016 56.834 36.3931 56.7736 36.6788 56.7097L37.7003 56.4832L38.7372 56.3617C39.0447 56.327 39.3465 56.2889 39.6483 56.2507C40.0514 56.2029 40.4522 56.1458 40.8518 56.1038L42.9496 56.0424C43.1021 56.0402 43.2488 56.0345 43.3897 56.0252C43.5609 56.0185 43.7298 56.0025 43.9112 56.018L44.9557 56.092C45.243 56.1166 45.5222 56.1283 45.8037 56.1493C45.9887 56.159 46.1643 56.1709 46.34 56.1829C46.5459 56.1975 46.7518 56.212 46.9506 56.2381C47.4154 56.3236 47.8722 56.3961 48.329 56.4686C48.9904 56.5708 49.6215 56.6705 50.2394 56.8177C50.4485 56.866 50.6447 56.9224 50.8525 56.9859L50.9117 57.0061L50.9268 57.0074L50.9687 57.0171C51.8877 57.2053 52.8009 57.5331 53.6909 57.8468C53.9984 57.9553 54.3059 58.0638 54.617 58.1665L56.3504 58.9482L56.7261 59.1144L57.0921 59.3223L57.9087 59.782C58.4021 60.0678 58.8942 60.3688 59.3641 60.68C60.8722 61.674 62.2847 62.8242 63.5508 64.0838L63.6801 64.2106L63.8805 64.3252L64.5273 64.7765C63.3942 65.8097 62.2241 66.9555 60.9712 68.2496C59.339 69.956 57.9088 71.5791 56.5973 73.2032L54.6302 76.5106L58.4277 75.1659C62.0114 72.6882 66.9422 71.3764 72.6849 71.3646C78.0052 71.341 83.9972 72.4044 90.4935 74.5161L91.8499 74.3274L92.3432 72.9745C93.7933 65.8429 94.2409 59.18 93.696 52.618C92.9793 44.2169 90.606 36.2742 86.6381 29.0268L84.5911 25.285L84.0955 29.5162C83.8467 31.6789 83.4831 33.9384 82.9919 36.4063C82.6055 38.3258 82.2312 39.9264 81.844 41.392C73.5537 36.8547 64.3233 34.4789 55.6704 34.6837C54.6407 34.6505 53.6379 34.7293 52.6631 34.8013Z" fill="#9BD6E7"/>
<path d="M56.3089 34.0559L55.3982 34.1273C54.4083 34.1981 53.381 34.2778 52.3657 34.4682L48.9764 35.0284C48.1566 35.2112 47.34 35.4277 46.5515 35.6375L45.196 35.9938C44.8157 36.0953 44.4355 36.1968 44.0574 36.3077L42.4172 36.8955C42.0961 37.0173 41.7785 37.1333 41.4645 37.2436C40.7512 37.4994 40.0157 37.7655 39.2715 38.0979L36.3326 39.4824L35.5671 39.8495L34.8174 40.282L33.4711 41.0655C31.9476 41.8917 30.5646 42.8914 29.2308 43.8496C28.8572 44.1223 28.4813 44.3856 28.1113 44.6525L28.0363 44.71C27.421 45.2088 26.8138 45.7204 26.2159 46.2298L25.6122 46.7356C25.4903 46.844 25.359 46.9546 25.2312 47.0594C24.9487 47.3003 24.6604 47.5376 24.3939 47.8042L23.3187 48.8728C20.5389 51.532 18.0019 54.6657 15.5498 58.4799L13.9883 61.0331L12.6498 63.6509C12.1981 64.4804 11.8453 65.3306 11.503 66.1633L10.8436 67.7488C10.6466 68.201 10.4456 68.6986 10.2959 69.2036L9.41282 71.9091C9.19898 72.5579 9.04916 73.2061 8.89838 73.8298C8.82943 74.1377 8.75469 74.442 8.67157 74.773L8.34811 76.1343C8.25662 76.492 8.20953 76.8291 8.1602 77.1569C8.13795 77.3104 8.11924 77.458 8.08282 77.6346L7.6556 80.3883L10.2341 81.1538C15.6706 69.0781 26.3701 59.6087 38.1452 56.4451C38.5837 56.3394 39.0209 56.2488 39.4559 56.1489C39.7509 56.0828 40.0424 56.0224 40.3281 55.9585L41.3496 55.732L42.3865 55.6105C42.694 55.5758 42.9958 55.5376 43.2976 55.4995C43.7007 55.4517 44.1015 55.3946 44.5011 55.3526L46.599 55.2912C46.7514 55.289 46.8981 55.2833 47.039 55.274C47.2102 55.2673 47.3791 55.2513 47.5605 55.2668L48.6051 55.3408C48.8923 55.3654 49.1716 55.377 49.4531 55.3981C49.638 55.4078 49.8137 55.4197 49.9893 55.4317C50.1952 55.4462 50.4011 55.4608 50.5999 55.4869C51.0647 55.5723 51.5215 55.6449 51.9783 55.7174C52.6397 55.8196 53.2708 55.9193 53.8888 56.0665C54.0978 56.1148 54.2976 56.1654 54.5019 56.2346L54.561 56.2549L54.5762 56.2562L54.618 56.2659C55.537 56.4541 56.4502 56.7819 57.3402 57.0955C57.6478 57.2041 57.9553 57.3126 58.2663 57.4153L59.9997 58.197L60.3754 58.3631L60.7414 58.5711L61.5638 59.0343C62.0572 59.3201 62.5493 59.6211 63.0192 59.9324C64.5273 60.9263 65.9398 62.0766 67.2059 63.3361L67.3352 63.4629L67.5356 63.5775L68.1824 64.0288C67.0493 65.062 65.8792 66.2078 64.6264 67.5019C62.9941 69.2083 61.5639 70.8314 60.2524 72.4555L58.2853 75.7629L62.0828 74.4182C65.6665 71.9405 70.5973 70.6287 76.34 70.6169C81.6603 70.5933 87.6523 71.6567 94.1486 73.7684L95.505 73.5797L95.9983 72.2268C97.4485 65.0952 97.896 58.4323 97.3511 51.8703C96.6344 43.4692 94.2611 35.5265 90.2932 28.2791L88.2463 24.5373L87.7506 28.7685C87.5019 30.9312 87.1382 33.1907 86.647 35.6586C86.2606 37.5781 85.8863 39.1787 85.4991 40.6443C77.2088 36.107 67.9784 33.7312 59.3256 33.936C58.2865 33.9051 57.2779 33.9803 56.3089 34.0559Z" fill="white"/>
<path d="M61.3044 73.2979C62.6548 71.6101 64.086 70.0114 65.6008 68.432C67.105 66.8701 68.7127 65.3078 70.3623 63.8984C70.3623 63.8984 70.2281 63.7925 70.0259 63.629C69.8187 63.4864 69.5421 63.3013 69.2597 63.1127C68.9867 62.9218 68.7043 62.7332 68.503 62.5942C68.4023 62.5247 68.3132 62.4622 68.2531 62.4175C68.1894 62.3785 68.1546 62.3573 68.1546 62.3573C66.3946 60.6047 64.4356 59.1123 62.2385 57.8401L61.4045 57.3698L60.9864 57.13L60.5493 56.9343L58.7638 56.1207C57.5138 55.7062 56.26 55.194 54.8983 54.9101C53.5448 54.4959 52.2107 54.388 50.814 54.1224C50.1211 54.0327 49.4239 54.028 48.7191 53.9708L47.6501 53.8977C47.293 53.8702 46.9424 53.9103 46.5827 53.9131L44.4115 53.9773C43.6893 54.0527 42.9702 54.1618 42.2351 54.2452L41.1271 54.3789L40.0403 54.6211C39.3103 54.7872 38.5701 54.931 37.8237 55.1109C26.0486 58.2746 14.8263 67.6232 8.99478 80.5789L9.422 77.8253C9.50387 77.3663 9.54747 76.8918 9.65958 76.4353L9.98659 75.0682C10.2224 74.1624 10.3945 73.2176 10.6908 72.3169L11.5809 69.5998C11.721 69.1366 11.8959 68.6947 12.0858 68.254L12.6383 66.9214C13.0067 66.033 13.3705 65.1259 13.8328 64.2791L15.1642 61.6728L16.7009 59.1602C18.8298 55.8484 21.3023 52.6512 24.251 49.8328L25.3426 48.7504C25.7053 48.3915 26.113 48.076 26.5011 47.7407C27.2888 47.0769 28.0743 46.4039 28.883 45.745C30.5749 44.5524 32.2514 43.2549 34.1199 42.2419L35.5013 41.4401L36.1995 41.0398L36.9205 40.6933L39.8501 39.311C40.8408 38.8748 41.8749 38.5367 42.9012 38.1462L44.454 37.5844C44.979 37.4282 45.5144 37.2943 46.0475 37.151C47.116 36.8737 48.1928 36.5698 49.2796 36.3276L52.5978 35.7796C53.718 35.5738 54.8266 35.5041 55.9423 35.4227C57.058 35.3414 58.1879 35.2369 59.3306 35.2676C68.4724 35.0437 78.1601 37.8423 86.348 42.6511C87.014 40.4174 87.5263 38.2011 87.9881 35.8982C88.4429 33.6069 88.8352 31.2615 89.1079 28.8907C93.4185 36.7613 95.3848 44.654 96.0016 51.9439C96.6099 59.2606 95.9097 66.0634 94.5695 72.4429C88.3669 70.4233 82.1331 69.1961 76.3344 69.2214C70.5402 69.2654 65.2275 70.5902 61.3044 73.2979Z" fill="#9BD6E7"/>
<path opacity="0.5" d="M61.3044 73.2979C62.6548 71.6101 64.086 70.0114 65.6008 68.4321C67.105 66.8701 68.7127 65.3078 70.3623 63.8984C70.3623 63.8984 70.2282 63.7925 70.0259 63.629C69.8187 63.4864 69.5422 63.3013 69.2598 63.1127C68.9867 62.9219 68.7043 62.7332 68.503 62.5942C68.4023 62.5247 68.3132 62.4622 68.2531 62.4175C68.1894 62.3786 68.1547 62.3573 68.1547 62.3573C66.3946 60.6047 64.4357 59.1123 62.2386 57.8402L61.4045 57.3699L60.9864 57.13L60.5493 56.9343L58.7638 56.1207C57.5138 55.7063 56.26 55.194 54.8984 54.9101C53.5448 54.4959 52.2107 54.388 50.814 54.1224C50.1211 54.0327 49.424 54.028 48.7191 53.9708L47.6501 53.8977C47.2931 53.8703 46.9424 53.9104 46.5827 53.9131L44.4115 53.9773C43.6893 54.0527 42.9703 54.1618 42.2351 54.2452L41.1272 54.379L40.0404 54.6211C39.3104 54.7872 38.5701 54.9311 37.8237 55.111C26.0486 58.2746 14.8263 67.6232 8.9948 80.5789C8.9948 80.5789 9.12524 80.1576 9.3729 79.3624C9.49497 78.9677 9.64923 78.4814 9.82637 77.9056C9.91494 77.6177 10.0141 77.3124 10.1124 76.9827C10.2257 76.6543 10.3728 76.3227 10.5132 75.9631C10.7998 75.2474 11.1208 74.4494 11.475 73.5841C11.8465 72.7295 12.3278 71.8385 12.8004 70.8707C13.244 69.8852 13.8714 68.9244 14.4843 67.8833C14.8052 67.3716 15.0962 66.8177 15.4602 66.3006C15.8242 65.7834 16.1989 65.2489 16.5829 64.7121C19.6698 60.4191 23.9549 55.7929 29.5557 52.2021C30.2578 51.7565 30.9599 51.3109 31.6691 50.8537C32.4127 50.4573 33.1621 50.0644 33.915 49.6658L35.0537 49.0655L36.2451 48.5612C37.0382 48.2269 37.8407 47.8904 38.6431 47.5538C39.4729 47.2897 40.3004 47.0162 41.1337 46.7463C41.5526 46.6206 41.9625 46.4577 42.3917 46.3542L43.6779 46.0591C44.5373 45.8766 45.3889 45.6418 46.263 45.5002L48.894 45.1524C49.7659 45.0015 50.6551 45.0044 51.5388 44.9642C52.4235 44.9484 53.3053 44.8593 54.1848 44.904C55.0643 44.9487 55.9474 44.9876 56.8211 45.0287C57.6971 45.0792 58.5582 45.232 59.421 45.3301C59.8511 45.3943 60.2837 45.4282 60.7125 45.5075L61.9812 45.7743C62.8234 45.9712 63.6755 46.0867 64.4832 46.3659C65.3028 46.6126 66.1131 46.8615 66.9211 47.1012C67.7053 47.4058 68.4838 47.7068 69.2586 48.0137C72.3028 49.3186 75.1129 50.902 77.5733 52.6932C80.0102 54.5097 82.2151 56.3673 84.0388 58.302C87.7567 62.0952 90.3084 65.74 92.0067 68.322C92.8781 69.6027 93.479 70.6622 93.9153 71.3666C94.3423 72.0732 94.5718 72.4522 94.5718 72.4522C88.3692 70.4327 82.1353 69.2054 76.3367 69.2307C70.5402 69.2654 65.2275 70.5902 61.3044 73.2979Z" fill="#9BD6E7"/>
</svg>
